<svg xmlns="http://www.w3.org/2000/svg" viewBox="0 0 116.1 116.1"><path d="M65.8 26.2l31.9 31.9-7.8 7.8L58.1 34l7.7-7.8zm.8 31.9L50.3 74.3l7.8 7.8 16.3-16.3-7.8-7.7zM58.1 34L41.8 50.3l7.8 7.8 16.3-16.3-7.8-7.8zm0 63.7L10.6 50.3l-7.8 7.8 47.4 47.4 7.8 7.8 47.4-47.4-7.8-7.8-39.5 39.6zm7.7-87.1L58 18.4l47.4 47.4 7.8-7.8-47.4-47.4zM34 58.1l16.3 16.3 7.8-7.8-16.3-16.3 24.1-24.1-7.8-7.8-31.9 31.9 7.8 7.8zm48.1 0L65.8 41.8 58 49.6l16.3 16.3-16.2 16.2-31.9-31.8-7.8 7.8L50.3 90l7.8 7.8L90 65.9l-7.9-7.8zm-24-55.3L10.6 50.3l7.8 7.8 47.4-47.4-7.7-7.9z" fill="none" stroke="#202121" stroke-width="4" stroke-miterlimit="10"/></svg>